<svg id="Layer_1" data-name="Layer 1" xmlns="http://www.w3.org/2000/svg" viewBox="0 0 479.22 466.12"><defs><style>.cls-1,.cls-2{fill:none;stroke:#fff;stroke-width:20px;}.cls-1{stroke-linecap:round;stroke-linejoin:round;}.cls-2{stroke-miterlimit:10;}</style></defs><title>design-icon</title><polygon class="cls-1" points="248.42 200.38 209.81 244.75 65.42 100.35 106.9 58.87 248.42 200.38"/><polygon class="cls-1" points="424.9 376.86 383.41 418.35 246.83 281.77 291.19 243.16 424.9 376.86"/><polygon class="cls-1" points="462.67 456.12 383.42 418.35 424.9 376.87 462.67 456.12"/><rect class="cls-1" x="37.56" y="42.78" width="69.11" height="58.66" transform="translate(61.73 -46.81) rotate(45)"/><path class="cls-2" d="M258.81,217.32,395.28,60.5l4.65-5.42c.39-.45.8-.9,1.23-1.31,19.12-18.49,48.44-19.42,65.92-1.94s16.54,46.8-1.94,65.91a17,17,0,0,1-1.32,1.23l-5.42,4.65L301.58,260.1" transform="translate(-10.39 -16.94)"/><line class="cls-2" x1="246.83" y1="281.77" x2="180.14" y2="339.81"/><line class="cls-2" x1="209.81" y1="244.75" x2="151.77" y2="311.44"/><path class="cls-2" d="M20.75,456.26c-3.5-3.5,17.61,34.73,97-107.51,13-23.32,47.73-21.78,63.73-5.77s18.1,52.17-5.77,63.73C27.07,478.67,23.38,458.89,20.75,456.26Z" transform="translate(-10.39 -16.94)"/></svg>